<?xml version="1.0" standalone="no"?>
<!DOCTYPE svg PUBLIC "-//W3C//DTD SVG 20010904//EN"
 "http://www.w3.org/TR/2001/REC-SVG-20010904/DTD/svg10.dtd">
<svg version="1.0" xmlns="http://www.w3.org/2000/svg"
 width="2401.000000pt" height="1801.000000pt" viewBox="0 0 2401.000000 1801.000000"
 preserveAspectRatio="xMidYMid meet">
<metadata>
Created by potrace 1.15, written by Peter Selinger 2001-2017
</metadata>
<g transform="translate(0.000000,1801.000000) scale(0.100000,-0.100000)"
fill="#000000" stroke="none">
<path d="M11017 17500 c-64 -11 -157 -29 -205 -40 -48 -12 -139 -32 -202 -45
-230 -48 -534 -130 -564 -153 -6 -5 -36 -18 -66 -30 -108 -39 -406 -193 -487
-250 -16 -11 -50 -31 -78 -45 -51 -26 -292 -191 -310 -212 -5 -7 -37 -34 -70
-60 -65 -52 -115 -98 -237 -218 -70 -68 -86 -91 -133 -190 -65 -135 -80 -206
-70 -336 7 -100 41 -214 97 -325 35 -68 116 -158 203 -223 56 -42 225 -129
375 -193 36 -15 103 -46 150 -68 123 -58 173 -77 290 -106 58 -14 125 -31 150
-38 66 -16 537 -22 635 -8 44 6 105 15 135 19 58 8 340 102 376 126 12 8 53
21 90 30 38 9 143 40 234 69 91 30 235 75 320 100 85 25 189 57 230 71 41 13
104 29 140 34 36 6 130 25 210 42 190 42 224 45 256 24 14 -9 45 -18 69 -19
42 -2 88 -27 180 -95 22 -16 52 -34 67 -40 16 -6 33 -24 41 -44 19 -44 50 -63
138 -82 41 -9 106 -27 144 -40 159 -53 275 -72 584 -95 72 -6 143 -15 158 -21
15 -6 54 -15 87 -20 74 -12 126 -39 158 -81 14 -18 36 -44 49 -58 14 -14 44
-51 68 -82 24 -32 47 -58 51 -58 7 0 205 -232 270 -316 14 -18 66 -79 116
-136 50 -57 99 -116 109 -133 11 -16 76 -106 146 -200 70 -93 141 -195 159
-225 18 -30 38 -58 45 -63 7 -4 30 -37 51 -75 21 -37 53 -89 72 -117 40 -58
113 -210 208 -430 47 -109 48 -111 48 -220 1 -101 -2 -118 -34 -205 -31 -87
-34 -106 -38 -231 -4 -127 -2 -146 27 -263 29 -117 31 -132 20 -189 -17 -96
-38 -157 -76 -218 -19 -31 -43 -88 -52 -125 -10 -38 -28 -93 -40 -123 -25 -63
-33 -150 -19 -236 5 -33 11 -163 13 -290 2 -130 10 -276 18 -335 22 -152 31
-399 18 -500 -6 -47 -14 -149 -18 -227 -5 -111 -9 -141 -18 -133 -7 6 -45 22
-86 36 -40 14 -88 39 -107 55 -18 16 -51 41 -73 55 -40 25 -45 33 -127 219
-50 115 -73 192 -88 309 -8 61 -26 160 -40 220 -14 60 -34 160 -45 223 -10 62
-29 148 -42 191 -13 42 -38 128 -56 191 -17 62 -47 145 -67 184 -19 38 -51
129 -70 201 -51 192 -103 355 -130 407 -13 26 -41 65 -64 88 -72 73 -136 95
-370 131 -211 33 -279 55 -318 105 -11 14 -39 78 -62 143 -48 136 -74 183
-127 233 -45 42 -70 52 -183 75 -47 9 -122 31 -167 50 -133 55 -247 46 -329
-26 -21 -18 -46 -30 -62 -30 -41 0 -180 47 -327 109 -85 37 -136 44 -320 49
-183 4 -304 -6 -347 -29 -30 -16 -58 -10 -67 14 -31 78 -43 138 -32 168 19 56
34 261 28 404 -5 137 -16 209 -41 270 -7 17 -19 46 -26 65 -23 59 -64 111
-164 208 -139 134 -180 151 -486 193 -68 9 -91 17 -112 37 -35 33 -35 43 4 99
80 117 11 170 -223 173 -74 1 -140 1 -146 1 -7 -1 -20 -15 -29 -32 -14 -29
-14 -35 0 -73 9 -24 30 -57 47 -74 36 -37 175 -113 243 -133 70 -20 163 -120
228 -244 22 -41 77 -188 107 -285 10 -30 23 -64 29 -75 6 -11 25 -60 43 -110
18 -49 53 -133 79 -185 64 -127 84 -215 85 -365 0 -129 -14 -186 -58 -233 -20
-21 -28 -23 -82 -17 -84 9 -218 35 -231 46 -6 5 -44 16 -85 25 -41 9 -106 31
-144 49 -60 27 -79 42 -125 100 -117 146 -205 319 -260 505 -89 306 -97 323
-205 447 -34 38 -67 78 -75 89 -20 28 -197 167 -239 189 -44 22 -209 27 -234
7 -30 -25 -47 -98 -37 -154 17 -86 -15 -256 -87 -468 -60 -178 -219 -572 -248
-617 -8 -12 -28 -55 -44 -95 -16 -40 -61 -136 -99 -213 -38 -77 -86 -182 -106
-234 -34 -87 -36 -100 -36 -207 0 -97 4 -125 27 -191 27 -81 74 -174 102 -207
41 -47 103 -58 145 -25 31 24 31 23 9 -22 -15 -29 -18 -62 -18 -214 l1 -180
52 -154 c79 -232 172 -434 242 -526 20 -27 54 -88 75 -135 21 -46 51 -106 67
-133 15 -27 34 -63 42 -80 7 -18 36 -62 64 -99 28 -37 63 -89 78 -115 15 -27
46 -75 69 -108 23 -33 52 -82 64 -110 23 -53 61 -217 61 -266 0 -16 4 -37 9
-47 27 -53 53 -125 67 -186 18 -82 32 -111 70 -150 34 -33 101 -69 114 -61 18
11 10 34 -17 49 -16 8 -44 32 -65 53 -32 33 -41 55 -72 174 -20 75 -36 143
-36 150 0 11 35 14 187 14 104 0 247 6 319 14 73 7 190 11 261 10 129 -4 131
-4 209 -44 43 -22 92 -52 109 -66 16 -14 50 -39 75 -56 44 -30 56 -46 79 -108
6 -17 25 -45 43 -64 35 -37 30 -45 -31 -56 -20 -4 -62 -17 -94 -30 -32 -14
-57 -21 -55 -17 2 4 11 28 22 55 18 46 19 47 63 47 44 0 45 1 38 28 -9 38 -18
45 -120 91 -57 25 -130 47 -200 61 -143 28 -203 47 -215 71 -6 10 -20 19 -32
19 -21 0 -22 -18 -3 -63 7 -17 2 -18 -54 -15 -55 2 -66 7 -96 36 -20 20 -41
32 -52 30 -20 -4 -30 -43 -15 -61 8 -9 -4 -13 -45 -14 -43 -2 -62 2 -85 18
-23 17 -32 18 -43 9 -8 -7 -15 -21 -15 -31 0 -11 -3 -18 -7 -18 -21 3 -33 -2
-33 -15 0 -19 -56 -18 -71 1 -6 7 -20 13 -31 13 -33 0 -18 -42 25 -69 27 -18
37 -31 37 -51 0 -34 22 -54 82 -74 43 -14 49 -14 85 3 52 26 218 81 241 81 14
0 21 -9 25 -36 14 -86 145 -206 250 -229 28 -6 27 -7 -44 -58 -181 -129 -213
-149 -229 -138 -53 39 -254 116 -365 141 -44 10 -109 25 -145 33 -257 63 -554
64 -760 3 -108 -32 -228 -120 -275 -201 -14 -23 -34 -50 -44 -59 -18 -16 -20
-16 -40 12 -39 56 -44 80 -20 118 12 20 18 42 14 53 -3 11 -1 22 5 26 17 11
11 40 -14 64 -38 36 -143 81 -215 92 -126 19 -267 26 -361 18 -176 -16 -375
-29 -462 -29 -64 0 -108 -7 -165 -24 -43 -14 -111 -28 -152 -32 -47 -4 -80
-13 -90 -23 -9 -9 -44 -37 -78 -63 -77 -60 -126 -117 -142 -165 -13 -41 -75
-94 -140 -120 -20 -7 -52 -22 -71 -32 -19 -11 -62 -24 -95 -31 -53 -10 -66
-18 -111 -65 -28 -29 -74 -93 -103 -142 -65 -109 -132 -195 -174 -224 -18 -12
-38 -29 -44 -37 -18 -22 -16 -59 4 -66 26 -10 185 172 235 269 21 40 113 160
140 183 24 20 210 80 270 88 29 4 58 11 64 16 6 4 19 6 28 2 33 -13 345 137
361 173 9 22 71 46 150 58 22 4 89 16 148 27 93 18 115 19 155 9 73 -19 292
-31 371 -21 31 5 34 3 35 -24 1 -18 12 -37 31 -52 51 -41 119 -57 253 -60
l123 -2 25 -33 c13 -18 24 -33 24 -34 0 -9 -100 -68 -150 -88 -80 -32 -129
-40 -146 -26 -7 6 -19 9 -26 7 -7 -3 -35 1 -62 8 -62 16 -106 9 -106 -18 0
-17 -4 -19 -27 -13 -16 4 -53 11 -83 16 -207 34 -466 -42 -516 -153 -12 -28
-27 -41 -64 -56 -78 -33 -152 -90 -194 -150 -21 -32 -45 -64 -52 -73 -18 -20
-17 -24 1 -42 12 -13 5 -16 -61 -22 -94 -9 -108 0 -99 62 5 33 3 44 -9 49 -18
7 -205 -29 -267 -52 -52 -19 -255 -69 -319 -79 -115 -18 -250 -47 -305 -66
-37 -13 -106 -25 -180 -30 -143 -11 -190 -27 -244 -80 -46 -46 -98 -145 -107
-201 -6 -32 -10 -38 -31 -38 -50 0 -93 -27 -112 -72 -25 -59 -33 -165 -16
-203 51 -115 66 -243 58 -492 -7 -186 5 -276 49 -391 11 -28 24 -80 28 -115 5
-34 18 -102 30 -152 15 -61 20 -107 17 -142 -9 -89 32 -225 103 -344 33 -55
60 -102 60 -105 0 -4 30 -51 66 -105 61 -91 162 -199 185 -199 6 0 7 -5 3 -11
-8 -14 -108 -59 -130 -59 -15 0 -84 -66 -111 -108 -14 -20 -14 -27 1 -66 19
-50 13 -77 -33 -135 -36 -46 -50 -87 -27 -78 9 4 16 1 16 -5 0 -15 -59 -120
-75 -133 -19 -16 -92 -119 -114 -162 -11 -21 -27 -88 -37 -151 -15 -104 -15
-115 0 -131 10 -10 16 -35 16 -62 0 -24 7 -76 15 -114 8 -39 22 -144 30 -235
8 -91 24 -217 35 -280 11 -63 20 -146 20 -185 1 -71 7 -106 54 -292 58 -231
75 -445 52 -662 -14 -131 -16 -233 -11 -660 7 -543 14 -668 46 -807 60 -260
62 -272 66 -504 6 -283 -8 -375 -77 -510 -25 -48 -25 -50 -1 -50 32 0 79 95
102 207 20 90 21 120 16 368 -5 283 -10 321 -83 620 -11 46 -17 189 -24 605
-9 478 -8 559 5 655 9 61 19 172 22 248 6 146 2 190 -44 397 -56 259 -73 359
-73 433 0 43 -4 86 -9 96 -15 27 -39 182 -51 326 -6 72 -18 171 -26 221 -8 51
-16 159 -17 240 -1 164 5 188 70 262 31 36 154 264 179 334 9 24 24 82 35 131
10 48 23 95 28 106 6 10 38 30 73 45 35 14 76 33 91 41 26 14 30 13 74 -21 73
-55 157 -94 221 -100 50 -6 65 -3 109 19 68 35 151 142 191 248 34 89 61 146
76 158 12 10 16 5 21 -36 17 -134 28 -174 55 -203 27 -29 32 -30 112 -30 l85
0 49 -62 c28 -35 63 -84 78 -110 15 -27 40 -55 56 -63 44 -23 122 -19 190 10
45 19 77 25 132 25 74 0 202 33 251 64 18 12 147 38 154 32 9 -8 -43 -59 -133
-130 -57 -46 -115 -98 -129 -114 -23 -28 -24 -32 -9 -40 15 -9 14 -13 -11 -46
-15 -20 -32 -36 -37 -36 -6 0 -35 -26 -66 -59 -109 -112 -246 -234 -281 -248
-20 -8 -57 -29 -84 -47 -61 -40 -74 -76 -57 -161 6 -33 14 -137 17 -231 5
-143 3 -179 -11 -219 -19 -56 -22 -238 -5 -350 5 -38 16 -122 25 -185 8 -63
24 -144 34 -180 11 -36 31 -108 44 -160 64 -241 83 -307 98 -330 9 -14 23 -47
32 -75 21 -69 62 -177 90 -239 13 -28 34 -87 46 -131 21 -76 55 -165 86 -230
18 -36 75 -213 99 -305 9 -36 29 -105 45 -155 16 -49 36 -128 45 -175 26 -134
71 -297 110 -395 20 -49 47 -140 60 -202 13 -61 30 -127 39 -145 15 -32 27
-73 65 -213 10 -38 28 -106 41 -150 16 -59 60 -286 60 -312 0 -2 12 -3 26 -3
23 0 25 3 20 28 -3 15 -12 75 -21 134 -8 59 -19 118 -24 130 -17 45 -59 185
-81 268 -28 106 -49 179 -60 205 -5 11 -16 54 -26 95 -9 41 -39 140 -65 220
-63 187 -64 192 -82 275 -33 147 -58 252 -76 320 -30 113 -151 469 -165 485
-16 19 -30 56 -57 155 -11 44 -43 132 -69 195 -44 107 -81 210 -158 450 -38
117 -73 273 -101 445 -12 72 -27 159 -34 195 -6 36 -11 112 -11 170 1 91 4
111 25 150 23 42 24 54 23 210 0 144 -3 172 -22 225 -33 89 -30 107 21 134 23
12 62 34 87 47 25 13 56 36 70 49 14 14 46 42 71 63 26 20 72 66 102 102 31
36 108 117 172 180 94 93 115 119 112 138 -4 19 6 31 49 62 29 22 65 57 81 77
15 21 36 47 46 57 9 11 17 25 17 32 0 6 14 29 31 50 18 22 65 107 105 191 41
83 86 167 102 185 15 18 36 45 45 60 10 16 24 28 31 28 8 0 20 10 28 23 31 47
103 230 174 440 42 127 83 232 98 252 14 18 68 65 119 103 150 112 197 176
201 272 1 48 6 63 33 93 48 55 49 70 12 143 -28 57 -33 77 -39 173 -4 81 -11
115 -25 137 -15 23 -18 49 -19 134 -1 99 1 109 31 170 17 36 48 107 67 158 43
111 76 170 94 165 7 -3 18 9 25 27 l14 31 42 -48 c121 -137 270 -276 411 -382
85 -65 163 -122 172 -127 10 -5 39 -29 65 -53 27 -23 75 -62 108 -87 33 -25
83 -63 110 -85 28 -22 75 -51 105 -65 30 -14 64 -31 75 -37 70 -38 139 -68
178 -79 40 -10 48 -9 72 8 15 10 37 24 48 31 11 6 30 22 42 35 12 12 93 90
181 173 200 188 509 500 619 625 46 52 119 131 164 174 l80 80 11 -29 c6 -16
13 -46 15 -67 2 -21 8 -52 14 -70 53 -169 68 -322 41 -429 -27 -107 -31 -148
-15 -178 15 -30 58 -51 105 -51 15 0 72 -11 126 -24 144 -35 229 -49 255 -41
l22 7 -22 -36 c-26 -41 -25 -91 3 -231 8 -44 16 -101 16 -127 0 -47 0 -47 -42
-58 -53 -14 -130 -61 -183 -111 -22 -21 -56 -45 -76 -53 -45 -19 -62 -40 -54
-66 5 -15 0 -26 -16 -39 -29 -23 -17 -41 29 -41 33 0 46 -9 116 -81 43 -44 91
-86 107 -94 15 -8 34 -23 41 -33 7 -10 34 -31 60 -46 44 -26 53 -27 135 -23
79 4 245 35 269 50 5 3 29 8 54 12 24 4 62 16 84 27 23 12 75 31 116 43 55 16
78 28 85 43 8 19 18 22 63 22 47 0 54 3 62 25 8 22 12 24 33 14 28 -13 67 2
67 25 0 7 11 18 25 24 18 8 25 19 25 39 0 20 13 38 52 72 28 25 68 61 87 80
20 19 61 45 91 58 30 14 73 39 95 57 22 18 50 38 63 45 16 8 22 21 22 44 0 20
13 53 32 83 17 27 57 108 88 179 56 127 149 326 155 334 2 1 31 -14 65 -35 67
-41 64 -29 40 -156 -5 -26 -21 -172 -36 -325 -22 -235 -25 -309 -21 -478 4
-112 2 -215 -3 -235 -5 -19 -19 -83 -29 -142 -18 -94 -28 -120 -79 -210 -98
-173 -130 -217 -231 -317 -232 -232 -385 -338 -460 -318 -32 8 -281 -12 -345
-28 -34 -9 -82 -29 -108 -45 -67 -41 -101 -48 -198 -40 -65 5 -88 4 -100 -7
-12 -11 -12 -15 2 -30 14 -13 37 -16 117 -16 97 0 103 2 186 42 48 22 96 41
107 41 12 0 37 4 57 9 20 5 108 15 196 21 141 9 167 14 220 39 33 15 81 45
106 67 26 21 80 67 122 102 169 142 319 316 357 412 7 19 18 40 24 45 22 20
76 143 76 173 0 17 4 33 9 37 14 8 24 -31 25 -96 2 -50 15 -82 120 -295 117
-238 141 -280 262 -466 52 -79 64 -106 64 -138 0 -43 66 -201 105 -255 13 -16
33 -50 45 -75 13 -25 46 -76 74 -115 29 -38 67 -97 86 -130 19 -33 48 -79 65
-102 16 -23 53 -78 80 -123 62 -102 115 -173 164 -225 34 -36 61 -75 61 -89 0
-3 -17 -8 -37 -12 -21 -3 -60 -12 -88 -19 -27 -8 -83 -19 -124 -25 -40 -7
-126 -30 -190 -52 -64 -22 -134 -46 -156 -54 -22 -7 -77 -23 -122 -35 -131
-34 -193 -86 -193 -161 0 -61 35 -91 199 -173 197 -99 445 -140 605 -100 156
40 224 91 267 204 43 112 37 162 -42 340 -11 24 -18 45 -16 47 10 10 238 78
337 100 65 15 178 51 260 84 80 32 172 66 204 75 58 17 312 130 397 177 24 13
89 43 144 67 55 23 114 49 130 56 58 26 141 54 265 90 69 20 157 47 195 59 39
13 145 36 237 51 174 29 221 29 353 -4 22 -6 68 -16 103 -22 45 -9 91 -28 161
-70 84 -50 116 -77 227 -194 71 -75 151 -167 177 -203 26 -37 77 -103 112
-147 35 -44 88 -114 116 -155 29 -41 75 -99 101 -129 27 -29 56 -67 65 -85 8
-17 30 -49 48 -71 17 -22 38 -51 45 -65 37 -72 203 -256 300 -333 229 -181
484 -442 510 -523 14 -43 26 -55 47 -47 19 8 16 33 -11 90 -46 94 -257 305
-541 540 -44 36 -96 86 -115 111 -19 25 -50 60 -67 78 -18 18 -70 88 -115 156
-45 68 -109 155 -142 193 -33 39 -75 95 -94 125 -19 30 -54 78 -77 105 -23 28
-84 106 -136 174 -52 69 -116 148 -144 175 -27 28 -75 79 -105 112 -99 110
-296 221 -395 222 -22 1 -76 10 -119 22 -86 22 -149 25 -211 10 -22 -5 -94
-19 -160 -29 -130 -22 -201 -42 -430 -121 -82 -28 -166 -56 -185 -62 -19 -5
-66 -25 -105 -43 -38 -18 -128 -61 -200 -96 -218 -104 -289 -135 -356 -159
-35 -12 -114 -42 -175 -65 -62 -24 -165 -59 -230 -78 -221 -65 -419 -117 -441
-117 -15 0 -33 15 -55 47 -18 25 -52 65 -75 87 -23 23 -59 69 -80 102 -21 34
-56 89 -78 123 -22 34 -84 130 -138 214 -54 83 -106 161 -116 172 -20 22 -101
169 -101 182 0 4 16 -17 35 -47 29 -44 35 -50 35 -30 0 14 -23 61 -50 105 -27
44 -55 91 -61 105 -14 34 -98 179 -122 210 -71 95 -173 275 -221 390 -19 47
-46 111 -60 142 l-26 58 43 -6 c57 -8 168 26 228 70 60 45 102 97 187 236 39
63 91 142 116 176 26 34 63 104 85 161 22 56 49 119 60 140 10 21 34 70 52
108 18 39 47 93 64 120 17 28 39 79 49 115 10 36 40 117 66 181 27 63 52 127
55 142 4 15 10 27 14 26 7 0 68 -95 96 -150 10 -21 15 -44 11 -54 -9 -24 -17
-14 -18 24 -1 23 -6 31 -19 31 -10 0 -22 -6 -26 -13 -4 -8 -20 -22 -35 -32
-20 -12 -28 -26 -28 -46 0 -15 -4 -30 -10 -34 -5 -3 -7 -12 -3 -20 3 -8 0 -15
-6 -15 -13 0 -14 -39 -2 -59 11 -18 3 -41 -14 -41 -15 0 -65 -91 -65 -119 0
-11 -4 -23 -10 -26 -15 -10 -12 -45 5 -51 8 -4 21 -1 29 5 21 18 41 -11 26
-39 -9 -16 -8 -25 0 -36 7 -7 10 -25 7 -40 -3 -19 2 -29 22 -42 37 -24 50 -43
51 -75 0 -32 26 -87 48 -103 10 -8 13 -20 9 -41 -5 -23 0 -39 19 -64 13 -18
24 -47 24 -63 0 -18 13 -50 30 -75 17 -24 30 -49 30 -56 0 -6 23 -24 51 -39
28 -16 54 -38 59 -52 6 -15 18 -24 30 -24 22 0 64 -43 90 -91 23 -43 89 -108
116 -115 52 -13 71 1 94 73 12 38 27 77 34 88 7 11 28 63 45 115 18 52 50 133
71 180 46 104 139 349 145 387 3 16 -1 39 -9 53 -8 14 -28 53 -45 86 -17 34
-47 85 -67 114 -19 28 -51 88 -70 133 l-35 80 27 66 c14 36 41 92 60 124 19
32 34 60 34 63 0 12 96 225 159 351 39 79 71 155 71 170 0 20 -19 46 -75 102
-66 67 -226 270 -279 356 -11 17 -25 34 -33 38 -10 6 -13 76 -13 357 l0 349
-26 83 c-25 79 -26 87 -15 169 15 118 14 162 -8 244 -25 97 -44 139 -88 192
-90 109 -127 132 -182 111 -25 -9 -111 -94 -111 -110 0 -4 -11 -8 -25 -8 -30
0 -75 -71 -75 -118 0 -24 -56 -151 -74 -170 -2 -2 -24 18 -50 45 l-46 48 1 85
c0 47 7 132 16 190 8 58 17 146 20 195 6 105 -12 397 -29 464 -15 59 -14 363
1 418 10 36 9 51 -8 100 -31 94 -35 187 -12 263 36 117 79 234 109 296 70 141
93 292 60 384 -27 77 -48 195 -48 276 0 85 15 151 60 267 25 66 30 92 30 167
0 101 -11 140 -76 277 -24 51 -44 95 -44 98 0 15 -153 319 -180 356 -17 24
-78 115 -135 201 -57 87 -126 184 -152 216 -45 55 -105 136 -128 171 -50 79
-130 183 -205 266 -50 55 -104 120 -122 145 -39 55 -127 158 -188 218 -43 44
-111 125 -185 223 -62 82 -163 111 -475 138 -209 18 -396 41 -441 54 l-44 13
55 18 c41 13 64 28 90 59 33 39 35 46 34 107 -1 41 -19 129 -48 240 -64 242
-83 311 -94 340 -5 14 -12 50 -16 80 -4 30 -18 97 -31 150 -12 52 -33 138 -45
190 -11 52 -25 104 -30 115 -5 11 -18 47 -29 80 -62 192 -106 270 -215 383
-72 75 -104 95 -251 158 -107 46 -113 47 -231 52 -115 4 -190 -4 -294 -29 -25
-6 -79 -13 -121 -16 -63 -4 -82 -2 -122 17 -53 25 -116 89 -143 146 -10 21
-50 71 -89 109 -59 60 -82 75 -145 99 -102 38 -271 44 -443 16z m317 -35 c145
-38 253 -115 331 -237 25 -38 58 -81 73 -95 72 -69 184 -86 342 -52 61 12 158
24 232 26 111 5 134 3 195 -17 206 -66 305 -135 398 -280 89 -138 106 -181
202 -530 26 -96 33 -129 58 -274 13 -77 36 -174 50 -215 55 -157 108 -403 97
-457 -7 -38 -51 -67 -130 -88 -88 -23 -116 -18 -211 37 -68 39 -76 46 -94 95
-26 68 -122 169 -197 207 -115 57 -286 158 -304 179 -10 11 -64 70 -120 130
-115 124 -127 145 -162 275 -35 131 -55 165 -117 205 -120 77 -155 89 -259 94
-88 4 -97 3 -107 -15 -15 -29 2 -48 131 -140 148 -107 341 -296 392 -385 48
-83 125 -165 188 -202 28 -16 66 -53 93 -88 44 -59 53 -78 36 -78 -10 0 -211
88 -226 99 -5 4 -62 30 -125 57 -183 78 -326 170 -428 274 -94 97 -122 129
-150 170 -16 25 -42 59 -57 75 -14 17 -42 49 -62 72 -19 24 -58 55 -87 71 -28
16 -69 39 -90 51 -22 13 -63 25 -92 28 -74 8 -123 -19 -256 -140 -50 -45 -187
-132 -195 -123 -3 3 -7 47 -8 98 -3 101 -9 112 -71 124 -35 6 -78 -11 -199
-79 -56 -32 -67 -34 -180 -40 -97 -5 -154 -14 -299 -51 -232 -59 -313 -73
-471 -81 -159 -7 -266 -15 -282 -20 -17 -6 -17 -42 0 -48 8 -3 36 -1 63 4 26
5 139 13 249 18 211 10 211 10 515 96 71 20 127 28 225 32 144 6 170 14 274
82 104 67 121 57 121 -71 0 -37 4 -78 10 -92 13 -35 54 -44 94 -21 56 32 210
148 249 187 50 51 92 71 145 70 60 -2 76 -8 154 -59 75 -49 123 -101 167 -178
77 -132 342 -357 511 -434 41 -19 129 -60 195 -91 66 -31 141 -65 168 -74 26
-10 47 -21 47 -26 0 -6 -74 -25 -140 -36 -8 -2 -40 -10 -70 -18 -30 -8 -86
-20 -123 -26 -79 -12 -272 -65 -399 -109 -48 -17 -134 -42 -190 -56 -107 -27
-134 -36 -206 -67 -23 -10 -63 -23 -90 -28 -26 -5 -67 -16 -92 -24 -65 -21
-212 -75 -235 -85 -159 -73 -352 -97 -713 -88 -292 7 -419 29 -580 98 -53 23
-137 59 -187 81 -49 21 -97 43 -105 48 -8 5 -62 33 -119 61 -279 138 -413 299
-455 548 -21 124 -20 191 4 285 35 139 78 204 240 367 252 253 403 359 850
599 270 145 462 211 779 266 113 19 223 41 245 49 58 19 89 24 270 50 198 28
217 29 290 10z m521 -1083 c65 -26 120 -69 147 -114 22 -35 60 -146 55 -161
-2 -6 -44 30 -94 79 -115 113 -174 163 -229 193 -24 14 -44 28 -44 32 0 15
105 -4 165 -29z m-1112 -1881 c34 -13 34 -25 -3 -92 -16 -30 -30 -64 -30 -76
0 -21 -1 -22 -38 -9 -105 37 -191 96 -218 149 -13 25 -14 31 -2 39 17 12 254
3 291 -11z m287 -307 c115 -18 216 -58 285 -113 22 -18 72 -68 111 -112 85
-94 116 -166 140 -328 18 -114 13 -346 -8 -446 -5 -27 -10 -68 -10 -90 -1 -66
17 -194 29 -206 21 -21 90 -21 195 0 130 26 327 28 448 5 89 -16 237 -66 285
-94 50 -30 173 -63 208 -56 18 3 46 19 63 35 49 46 87 61 156 61 52 0 77 -6
136 -35 42 -20 111 -42 160 -51 171 -32 199 -54 252 -191 12 -32 27 -69 35
-83 7 -14 20 -49 30 -78 40 -125 126 -170 385 -203 223 -28 267 -43 346 -123
69 -69 62 -52 155 -386 29 -102 74 -237 101 -300 26 -63 48 -121 48 -130 0 -9
4 -20 9 -26 14 -15 67 -235 100 -414 17 -91 37 -182 45 -201 8 -20 24 -100 36
-180 28 -197 42 -254 77 -324 17 -33 36 -76 43 -95 7 -19 18 -48 25 -65 7 -16
20 -46 28 -66 12 -29 26 -41 61 -54 25 -10 46 -21 46 -24 0 -6 -149 -39 -255
-58 -16 -3 -43 -13 -60 -23 -16 -10 -73 -39 -125 -66 -102 -52 -169 -91 -185
-109 -5 -6 -56 -42 -112 -79 -56 -37 -107 -74 -114 -82 -10 -12 -39 -20 -39
-10 0 2 7 23 15 47 11 30 14 60 9 101 -6 54 -5 58 14 58 12 0 46 -12 77 -27
45 -22 60 -25 82 -17 22 8 28 16 27 39 0 20 8 36 23 48 13 10 23 25 23 33 0
26 -29 26 -61 0 -37 -31 -77 -33 -109 -6 -14 12 -31 18 -42 14 -28 -8 -21 10
12 34 17 13 30 29 30 38 0 24 -29 28 -53 8 -70 -61 -80 -64 -197 -64 -67 0
-110 4 -110 10 0 6 5 10 11 10 6 0 9 14 7 33 -5 49 -36 48 -73 -2 -22 -29 -40
-42 -65 -47 -19 -4 -54 -15 -78 -25 -47 -20 -47 -17 0 42 15 20 28 44 28 53 0
36 -41 13 -111 -63 -57 -62 -86 -84 -128 -101 -30 -11 -60 -19 -67 -16 -7 3
-45 -2 -85 -10 -83 -17 -94 -12 -103 46 -12 75 -9 78 172 167 92 45 198 94
236 108 38 14 74 29 80 34 6 5 58 25 116 46 58 21 150 59 205 85 55 26 155 62
223 80 71 19 122 38 122 45 0 7 7 18 15 25 29 24 17 47 -37 70 -86 37 -153 36
-309 -3 -75 -19 -165 -49 -200 -66 -35 -17 -68 -31 -74 -31 -15 0 -168 -63
-196 -81 -27 -17 -116 -59 -125 -59 -3 0 -63 -28 -132 -61 -70 -34 -163 -76
-208 -94 -217 -88 -292 -146 -324 -254 -27 -87 -24 -135 8 -139 12 -2 22 0 23
5 6 91 36 189 67 215 26 23 228 124 307 153 39 15 115 50 170 80 55 29 111 56
125 60 14 4 72 31 130 60 58 29 128 60 155 68 28 8 93 31 145 51 118 45 246
76 312 76 55 0 125 -27 110 -42 -5 -5 -56 -22 -113 -38 -133 -36 -177 -52
-246 -90 -31 -17 -106 -48 -167 -70 -140 -49 -327 -131 -478 -209 l-117 -61
-35 21 c-34 20 -37 20 -86 4 -63 -21 -100 -63 -100 -114 0 -70 38 -79 110 -27
l48 34 7 -56 c4 -31 13 -68 22 -81 14 -22 20 -23 85 -19 108 8 67 -16 -79 -46
-121 -25 -187 -50 -213 -81 -8 -10 -24 -21 -36 -26 -35 -13 -151 -156 -169
-208 -29 -81 -16 -75 -191 -83 -114 -5 -182 -13 -239 -29 -126 -34 -122 -33
-130 -10 -4 12 -23 39 -43 60 -20 21 -62 64 -92 96 -119 126 -327 172 -585
130 -85 -14 -91 -13 -108 4 -16 16 -17 21 -6 39 12 18 11 26 -4 51 -9 16 -17
36 -17 44 0 8 -11 22 -24 31 -14 8 -27 23 -30 33 -8 25 -58 57 -145 92 -41 17
-88 43 -105 60 -17 16 -85 55 -151 86 -66 31 -128 61 -137 66 -10 5 -26 9 -36
9 -10 0 -45 16 -78 36 -144 87 -174 94 -430 97 -223 2 -227 1 -254 -64 -7 -16
-15 -29 -19 -29 -3 1 -20 31 -38 68 -34 71 -193 321 -229 361 -12 12 -61 102
-110 200 -48 97 -114 214 -145 261 -31 47 -75 130 -97 185 -23 55 -57 140 -77
189 -20 49 -48 139 -62 200 -22 96 -24 127 -20 231 3 66 12 143 20 170 8 28
22 76 30 109 9 32 31 77 48 100 112 150 280 423 319 519 25 63 30 89 30 159 0
93 -15 128 -54 128 -31 0 -48 -16 -90 -82 -20 -31 -41 -60 -47 -63 -18 -12
-110 -218 -116 -262 -5 -36 -3 -43 11 -43 9 0 16 -5 16 -10 0 -21 -39 -121
-58 -147 -11 -16 -34 -71 -52 -123 -29 -88 -36 -99 -93 -152 -34 -32 -65 -58
-69 -58 -14 0 -70 66 -92 110 -38 72 -56 148 -62 255 -7 126 12 204 89 365 30
63 66 142 80 175 51 117 149 341 187 425 21 47 47 110 59 140 32 84 90 239
111 295 44 121 91 336 95 437 5 126 17 148 79 148 24 0 62 -7 85 -15 62 -21
187 -119 266 -208 174 -194 167 -183 210 -342 78 -286 249 -629 362 -725 57
-49 156 -97 233 -114 36 -8 101 -24 145 -35 44 -12 126 -24 182 -28 l102 -6
29 29 c52 52 72 127 72 270 0 69 -5 146 -11 172 -23 97 -63 207 -99 272 -35
60 -71 149 -128 310 -106 302 -110 310 -180 409 l-45 63 39 -5 c21 -4 86 -14
144 -23z m-1448 -1541 c2 -83 -3 -104 -47 -204 -34 -77 -177 -309 -190 -309
-1 0 13 41 32 92 l35 92 -21 17 c-20 16 -20 19 -6 61 9 23 27 60 40 80 14 21
25 41 25 46 0 7 44 74 102 155 20 28 28 20 30 -30z m6260 -2725 c81 -88 137
-217 140 -323 0 -22 -3 -88 -7 -147 -7 -87 -5 -115 8 -150 22 -60 37 -140 37
-195 0 -66 -19 -43 -30 36 -12 88 -27 127 -76 204 -52 80 -73 90 -171 84 -39
-2 -77 -1 -84 3 -13 9 -34 339 -24 380 10 39 114 160 138 160 12 0 41 -21 69
-52z m-5368 -25 c67 -14 88 -24 138 -64 33 -26 74 -51 91 -54 18 -4 64 -19
102 -33 l70 -27 -200 -6 c-110 -4 -238 -12 -285 -18 -93 -12 -243 -14 -303 -5
-30 5 -36 10 -32 24 4 12 -2 24 -15 33 -18 12 -21 25 -21 72 0 66 16 92 65 98
61 9 312 -4 390 -20z m5071 -418 c15 -27 36 -59 46 -70 37 -43 34 -382 -7
-730 -12 -101 -22 -147 -35 -167 -11 -14 -19 -29 -19 -33 0 -3 -11 -21 -25
-39 -14 -18 -25 -39 -25 -46 0 -7 -3 -10 -7 -7 -12 13 -33 -16 -33 -45 0 -32
-13 -61 -41 -92 -11 -11 -19 -25 -19 -32 0 -7 -14 -38 -31 -70 -18 -36 -28
-66 -25 -80 4 -14 -3 -31 -19 -50 -28 -32 -50 -97 -41 -121 4 -8 -3 -22 -15
-31 -20 -17 -19 -52 2 -52 5 0 9 -11 9 -24 0 -13 8 -34 19 -47 10 -13 39 -61
65 -107 l47 -83 -27 -87 c-15 -48 -42 -122 -61 -165 -19 -43 -45 -111 -58
-151 -13 -41 -55 -134 -93 -207 -38 -74 -86 -177 -106 -230 -26 -67 -67 -141
-133 -240 -52 -79 -106 -165 -119 -190 -30 -61 -116 -153 -170 -185 -62 -36
-190 -46 -217 -17 -65 73 -119 609 -88 878 6 50 15 149 21 220 12 147 41 375
47 375 2 0 28 -12 58 -26 l53 -26 32 23 c53 39 115 102 130 131 7 15 28 38 47
50 52 35 202 246 203 285 0 12 5 25 10 28 6 4 19 23 30 43 10 20 30 50 44 65
13 16 44 61 67 100 23 40 54 90 68 112 14 23 43 81 64 130 38 89 53 121 75
160 6 11 29 58 51 105 23 47 52 105 66 129 27 47 69 178 104 322 28 111 33
299 9 345 -11 24 -13 36 -4 50 9 17 11 15 16 -16 3 -19 19 -57 35 -85z m-1695
80 c15 -14 20 -14 46 0 39 20 75 20 68 0 -4 -8 -17 -15 -31 -15 -13 0 -41 -11
-61 -25 -20 -14 -45 -25 -55 -25 -28 0 -31 -26 -8 -73 21 -44 53 -67 92 -67
11 0 17 -5 14 -10 -4 -6 -1 -18 7 -27 7 -9 8 -14 3 -12 -6 2 -52 22 -103 44
-102 45 -114 60 -111 148 2 43 5 47 38 61 47 19 80 20 101 1z m1974 -185 c14
-5 32 -20 41 -34 27 -40 75 -166 75 -194 0 -43 33 -133 57 -156 22 -20 23 -26
23 -219 l0 -199 -27 34 c-16 18 -39 42 -53 53 -14 11 -47 42 -75 68 -65 64
-108 84 -138 64 -43 -28 -77 -70 -77 -95 0 -33 -21 -102 -32 -102 -11 0 -11
-5 11 198 31 281 40 422 31 477 -17 100 -16 103 38 108 93 7 101 7 126 -3z
m-7340 -246 c-5 -29 -2 -40 17 -60 30 -32 81 -54 126 -54 20 0 32 -4 28 -10
-11 -18 -75 -11 -104 11 -28 21 -30 21 -97 4 -81 -20 -133 -16 -252 22 -62 19
-86 23 -95 14 -6 -6 -30 -11 -54 -11 -53 0 -296 -51 -377 -79 -33 -12 -78 -21
-101 -21 -24 0 -84 -13 -136 -30 -51 -16 -94 -28 -96 -26 -5 5 45 54 105 104
66 54 146 92 197 92 22 0 72 10 110 21 47 14 118 24 215 30 239 15 422 26 473
27 l48 2 -7 -36z m196 22 c30 -8 75 -17 98 -21 24 -4 51 -16 60 -26 9 -10 29
-19 44 -19 44 0 41 -17 -5 -24 -67 -9 -274 2 -305 16 -33 16 -42 56 -16 75 23
17 56 16 124 -1z m4140 -487 c19 -30 44 -72 55 -94 37 -72 209 -220 320 -275
58 -29 407 -257 470 -308 33 -26 104 -69 230 -139 44 -25 116 -69 161 -99 44
-30 88 -54 97 -54 9 0 17 -5 17 -10 0 -14 -81 -201 -125 -288 -20 -41 -45 -99
-56 -130 -11 -32 -40 -87 -65 -125 -27 -38 -44 -73 -40 -82 6 -17 -33 -36
-120 -59 -41 -11 -54 -11 -57 -1 -4 9 -36 11 -129 7 -69 -2 -156 1 -198 8 -41
6 -113 15 -160 20 -47 5 -111 14 -142 21 -77 16 -160 5 -198 -27 -65 -55 -116
-74 -199 -74 l-78 0 -6 79 c-2 43 -17 118 -32 166 -27 86 -27 89 -10 121 29
54 133 144 166 144 6 0 34 19 64 43 40 31 58 53 66 82 7 22 20 51 30 65 52 78
72 143 45 153 -16 6 -36 -11 -36 -30 0 -19 -39 -93 -48 -93 -4 0 -13 5 -20 12
-9 9 -22 8 -54 -1 -85 -25 -105 -39 -147 -101 -42 -61 -45 -77 -27 -121 10
-23 -41 -29 -135 -19 -75 9 -218 44 -250 61 -10 5 -31 9 -47 9 -16 0 -44 5
-62 11 -32 12 -32 12 -26 63 4 28 14 70 21 93 17 49 13 232 -5 298 -24 87 -50
210 -50 238 0 16 -10 46 -21 67 l-22 39 41 47 c23 25 55 74 72 108 17 33 44
84 62 111 17 28 46 80 64 116 42 83 9 73 459 137 l50 8 20 -72 c11 -39 36 -95
55 -125z m3134 -92 l47 -52 -7 -55 c-10 -64 -11 -171 -4 -250 4 -46 2 -54 -10
-51 -8 2 -26 6 -40 8 -34 6 -55 49 -35 70 9 8 15 33 15 58 0 24 5 47 10 50 6
4 8 11 5 16 -4 5 -1 9 4 9 35 0 -12 99 -79 168 -38 38 -40 43 -37 95 l2 54 41
-33 c23 -19 62 -58 88 -87z m-6913 36 c15 -28 93 -116 201 -226 98 -99 178
-185 178 -192 0 -6 -11 -34 -25 -61 -14 -27 -35 -75 -45 -107 -11 -31 -38 -94
-60 -140 -74 -155 -80 -178 -80 -296 0 -82 5 -122 20 -166 14 -41 20 -84 20
-145 0 -88 8 -112 61 -197 12 -20 9 -26 -29 -67 -40 -43 -42 -49 -42 -107 0
-44 -6 -71 -19 -93 -23 -37 -122 -126 -203 -182 -70 -48 -136 -152 -167 -264
-67 -235 -97 -313 -111 -290 -6 8 -10 42 -10 76 0 70 -28 162 -64 209 -24 31
-48 44 -164 87 -38 14 -96 49 -148 90 -100 78 -163 103 -232 93 -94 -14 -194
-45 -235 -73 -23 -16 -82 -53 -132 -82 -49 -29 -103 -64 -118 -76 -33 -28
-148 -84 -267 -130 -47 -18 -107 -42 -133 -54 -27 -12 -50 -20 -51 -18 -1 1
-13 28 -26 58 -25 60 -109 169 -186 240 -46 43 -219 187 -264 220 -16 12 -22
32 -29 101 -4 48 -11 91 -14 96 -4 6 3 33 13 62 11 28 20 61 20 72 0 33 -30
75 -67 93 -25 12 -40 31 -62 78 -22 48 -37 67 -62 80 -32 16 -33 17 -9 18 14
1 49 9 79 19 51 17 56 17 135 -1 135 -32 165 -32 257 -7 110 29 349 34 383 8
12 -9 51 -31 86 -48 36 -17 90 -51 120 -74 54 -42 65 -62 84 -149 5 -21 12
-28 30 -28 13 0 44 -11 67 -25 24 -14 54 -25 67 -25 23 0 110 -39 191 -85 57
-32 107 -32 177 1 59 28 74 47 74 94 l0 30 27 -17 c31 -21 163 -24 186 -5 10
9 22 9 45 0 36 -14 75 1 99 39 16 24 12 41 -46 202 -33 91 -56 124 -81 116
-10 -3 -22 6 -35 28 -63 109 -299 350 -420 430 -58 38 -65 45 -127 122 -30 39
-85 100 -121 137 -53 53 -74 67 -107 73 -45 8 -67 -3 -57 -29 4 -10 18 -16 37
-16 26 0 45 -14 106 -77 42 -43 93 -103 115 -133 22 -32 93 -100 166 -162 71
-58 154 -134 186 -169 32 -35 76 -83 97 -106 46 -48 47 -53 21 -77 -25 -23
-34 -76 -22 -124 6 -21 40 -79 76 -130 71 -101 72 -98 -34 -82 -52 7 -69 14
-87 37 -18 23 -24 25 -37 14 -13 -11 -18 -8 -33 21 -10 18 -19 40 -20 48 -2 8
-8 16 -15 19 -6 2 -21 14 -32 28 -12 13 -36 31 -54 40 -50 23 -169 135 -220
205 -25 35 -60 74 -77 88 -18 13 -47 45 -65 72 -35 51 -139 128 -201 149 -19
7 -50 23 -68 36 -19 13 -48 23 -65 23 -31 0 -97 -35 -97 -51 0 -23 -42 -5 -77
34 -59 66 -104 90 -161 84 -164 -16 -258 -31 -340 -53 -82 -21 -144 -30 -342
-47 -25 -2 -81 -14 -124 -26 -104 -28 -191 -37 -202 -20 -15 26 -9 75 16 118
44 76 77 92 239 111 46 5 177 32 290 59 113 28 265 62 336 77 72 14 157 35
190 46 54 18 179 48 197 48 5 0 8 -10 8 -23 0 -61 55 -87 186 -87 64 0 83 3
88 15 7 19 -3 45 -18 45 -7 0 -8 3 0 8 5 4 25 32 43 62 53 87 120 143 185 155
41 7 106 61 106 87 0 24 106 96 153 103 23 4 47 11 52 15 6 4 43 13 84 20 74
12 111 8 176 -21 53 -24 115 -26 185 -8 51 14 76 16 95 9 33 -13 70 -13 93 -1
32 18 185 84 211 91 33 9 50 -6 82 -67z m7099 -271 c109 -151 143 -193 209
-260 33 -34 61 -68 61 -76 0 -8 -15 -43 -34 -78 -48 -89 -112 -221 -121 -249
-4 -13 -43 -98 -86 -187 -44 -90 -79 -168 -79 -173 0 -5 -6 -9 -14 -9 -19 0
-39 52 -31 81 3 14 1 38 -5 54 -9 23 -8 30 5 37 10 6 15 24 15 59 0 34 4 51
15 55 15 6 15 59 0 97 -4 9 -3 17 3 17 26 0 46 57 49 144 2 49 8 95 14 102 14
17 6 77 -15 108 -9 15 -32 34 -50 43 l-33 15 -8 97 c-4 53 -7 111 -7 129 1 43
21 104 33 97 5 -4 40 -50 79 -103z m-190 -395 c0 -12 7 -32 15 -43 8 -12 12
-24 9 -27 -3 -3 2 -20 11 -37 12 -24 15 -49 12 -96 -3 -34 -7 -66 -10 -71 -3
-4 -8 -25 -11 -46 -3 -22 -12 -48 -20 -58 -13 -19 -14 -19 -35 13 -11 18 -30
47 -41 63 -11 17 -20 33 -20 36 0 3 18 11 41 18 56 17 70 50 53 132 -13 65
-25 85 -55 94 -26 8 -24 24 4 35 36 14 47 11 47 -13z m-8836 -116 c15 -10 47
-40 71 -65 48 -53 87 -60 143 -26 42 26 58 25 128 -6 110 -47 125 -57 207
-142 45 -47 98 -101 118 -121 20 -20 49 -55 64 -79 16 -24 41 -50 56 -57 15
-8 35 -22 44 -31 15 -15 15 -18 -5 -39 -12 -13 -24 -41 -27 -63 -4 -33 -1 -46
23 -77 15 -20 48 -51 73 -68 48 -33 121 -104 121 -119 0 -24 -102 5 -149 42
-20 16 -58 34 -86 41 -134 32 -138 34 -155 64 -10 17 -24 29 -33 29 -9 -1 -18
9 -22 24 -8 33 -42 80 -79 112 -17 14 -37 33 -46 42 -9 10 -45 31 -80 48 -36
17 -80 42 -99 56 -34 24 -36 24 -180 18 -106 -4 -162 -11 -206 -26 -100 -33
-150 -34 -246 -4 -72 23 -94 26 -158 20 -61 -6 -86 -14 -140 -46 -36 -21 -75
-38 -86 -38 -30 0 -47 -15 -43 -36 3 -19 20 -21 104 -13 27 2 75 -21 84 -41 4
-8 17 -36 28 -61 15 -35 32 -53 64 -71 51 -28 60 -57 29 -99 -22 -30 -27 -69
-11 -98 5 -10 11 -52 13 -93 3 -41 11 -87 19 -102 20 -38 183 -183 215 -191
44 -11 178 -153 228 -241 25 -43 45 -86 45 -96 0 -10 -9 -32 -20 -50 -11 -18
-20 -38 -20 -44 0 -23 -95 -181 -149 -248 -51 -61 -216 -198 -259 -213 -26 -9
-52 -35 -46 -44 3 -5 -16 -23 -42 -41 -26 -18 -55 -41 -63 -52 -9 -10 -33 -29
-54 -43 l-38 -24 -32 20 c-61 38 -149 149 -238 296 -48 81 -98 177 -110 213
-20 59 -20 66 -5 74 18 10 22 43 5 53 -16 11 -31 54 -45 135 -18 107 -51 274
-70 350 -32 129 -45 266 -47 495 -3 224 -4 232 -32 320 -36 111 -40 225 -9
254 27 25 72 42 79 31 9 -15 43 -12 52 4 5 10 45 20 113 31 58 8 130 22 160
30 30 8 114 20 185 25 143 11 170 15 233 36 23 8 102 21 175 29 72 8 146 19
162 24 45 14 57 13 89 -8z m1320 -523 c9 -12 16 -29 16 -38 1 -21 35 -60 54
-60 26 0 64 -112 47 -139 -29 -45 -180 151 -181 235 0 17 3 34 6 37 9 9 41
-10 58 -35z m-383 -118 c23 -22 50 -40 60 -40 12 0 30 -22 54 -63 60 -108 38
-130 -51 -49 -28 26 -73 64 -98 86 -34 28 -46 45 -46 65 0 54 26 55 81 1z
m8051 -42 c16 -44 85 -176 113 -213 27 -37 68 -142 67 -172 -1 -12 -27 -86
-58 -163 -55 -137 -57 -140 -76 -123 -10 9 -35 17 -53 17 -19 0 -35 0 -35 1 0
0 -7 21 -15 47 -13 43 -12 49 4 70 14 17 17 28 10 47 -8 19 -5 31 13 57 13 19
26 34 31 34 13 0 7 31 -8 36 -8 4 -15 18 -15 32 0 14 -9 35 -19 46 -17 18 -19
28 -11 61 8 33 6 43 -10 60 -11 12 -21 32 -22 46 -2 27 50 149 64 149 5 0 14
-15 20 -32z m-3578 -257 c17 -6 15 -11 -20 -39 -21 -18 -41 -32 -45 -32 -3 0
-12 -18 -19 -39 -16 -48 -27 -53 -100 -45 l-57 6 21 22 c12 11 31 33 43 48 20
27 124 89 147 87 6 0 20 -4 30 -8z m-4305 -319 c21 -10 73 -46 117 -79 93 -71
120 -85 197 -108 32 -9 69 -26 82 -38 42 -38 66 -120 72 -244 7 -133 -4 -171
-76 -273 -89 -125 -115 -172 -200 -351 -47 -100 -99 -154 -158 -164 -45 -8
-108 -24 -223 -59 -47 -14 -123 -28 -170 -32 -57 -4 -102 -14 -136 -30 -30
-14 -69 -24 -97 -24 -42 0 -49 4 -73 38 -15 20 -47 62 -71 94 -24 31 -43 59
-43 61 0 3 14 8 30 12 21 5 30 13 30 26 0 18 -6 19 -134 12 -133 -6 -134 -6
-158 18 -20 20 -27 42 -36 115 -17 126 -16 138 16 197 25 49 27 59 27 182 0
72 -3 151 -7 176 l-7 46 87 41 c48 22 114 49 147 60 81 27 128 50 200 96 257
165 299 189 367 210 131 42 161 44 217 18z m-1128 -741 c-10 -36 -25 -88 -32
-114 -10 -42 -20 -55 -68 -90 -51 -38 -62 -42 -126 -45 -38 -1 -77 2 -85 8
-13 9 -10 15 16 38 18 15 57 45 89 67 31 22 61 48 66 57 5 9 27 37 48 62 22
25 55 74 73 108 l33 63 3 -45 c2 -24 -5 -73 -17 -109z m-105 -298 c-8 -16 -30
-59 -48 -97 -37 -79 -112 -161 -157 -171 -67 -14 -174 22 -256 89 -26 21 -28
26 -16 40 8 10 34 29 58 43 24 14 49 33 56 43 6 9 26 24 44 33 17 9 33 22 35
29 3 9 17 9 63 0 76 -16 143 -14 180 3 49 22 58 19 41 -12z m8507 -1482 c9
-21 24 -61 33 -90 8 -28 24 -57 34 -64 42 -25 17 -150 -46 -232 -76 -100 -304
-150 -504 -111 -212 43 -430 162 -430 237 0 34 65 94 117 108 21 5 67 17 103
26 76 19 211 64 225 75 19 15 363 88 420 89 25 0 33 -6 48 -38z"/>
<path d="M8935 8644 c-37 -19 -104 -102 -140 -174 -15 -30 -35 -66 -45 -80
-20 -29 -37 -84 -45 -153 -5 -38 -17 -60 -57 -108 -81 -97 -92 -135 -67 -218
10 -33 8 -41 -15 -75 -14 -22 -26 -44 -27 -50 0 -6 -4 -32 -8 -58 -7 -43 -6
-49 15 -63 22 -14 23 -14 30 43 7 62 25 107 47 115 8 3 23 -10 38 -34 26 -43
59 -53 59 -18 0 12 -10 48 -21 80 -15 42 -27 59 -40 59 -49 0 -24 114 40 177
37 37 45 60 62 163 8 51 24 101 52 155 47 91 130 195 157 195 28 0 45 27 30
45 -16 19 -27 19 -65 -1z"/>
<path d="M8351 8463 c-7 -26 -18 -68 -26 -93 -27 -87 -38 -166 -44 -325 -6
-125 -4 -163 6 -175 10 -11 15 -12 25 -2 9 9 12 44 10 120 -4 135 25 321 48
307 16 -10 24 19 26 90 1 38 4 81 6 95 2 19 -2 26 -18 28 -18 3 -23 -5 -33
-45z"/>
</g>
</svg>
